<svg xmlns="http://www.w3.org/2000/svg" viewBox="0 0 35.63 15.12" fill="#ffffff">
  <path d="M35.63 4.35l-.05-.04c-6.7.27-12.98 2.37-17.2 4.97-.18-.27-.38-.53-.6-.8 3.79-2.34 9.08-4.29 13.59-4.88l-.07-.04c-4.82.48-9.54 1.95-12.89 3.77-.13-.24-.3-.48-.48-.71 2.93-1.69 6.71-3.05 10.32-3.71l-.05-.04c-4.21.64-8.01 1.81-10.64 3.3-.19-.21-.4-.41-.63-.62.28-.17.56-.33.86-.49.13.13.26.27.38.41l.15-.14c-.08-.14-.17-.27-.27-.41 2.16-1.1 4.84-1.97 6.93-2.38l-.06-.04c-2.13.38-4.97 1.03-7.15 2.06C15.98 2.47 12.36 1.02 7.09 0l-.05.03c4.76 1.08 8.25 2.7 10.4 4.71-.31.16-.61.33-.88.51-2.53-2.08-7-3.94-12.89-4.81l-.05.03c5.19.94 9.54 2.82 12.47 5.12-.29.22-.55.45-.77.69C12.07 3.98 6.93 2.04.04 1.15L0 1.18c5.69.91 11.62 2.91 15.64 6.3-.53.46-.96.93-1.26 1.42l.17.18c.44-.42.94-.84 1.49-1.24.21.18.41.37.61.57-1.38.95-2.38 1.97-2.82 2.96l.18.15c.77-.89 1.84-1.77 3.12-2.62.23.25.45.5.66.76-2.6 1.71-4.31 3.6-4.69 5.34l.2.14c1.09-1.85 2.85-3.46 4.95-4.88.33.46.63.93.89 1.43l.18-.12c-.1-.54-.29-1.08-.57-1.62 5.3-3.36 12.5-5.33 16.88-5.6zM15.6 6.48c.25-.21.53-.41.83-.62.23.19.45.38.66.58-.29.18-.57.36-.83.56-.21-.19-.43-.35-.66-.52zm1.1.9c.26-.19.54-.35.82-.53.21.21.41.42.59.65-.28.15-.54.32-.8.47-.19-.2-.39-.4-.61-.59z"/>
</svg>
