<svg xmlns="http://www.w3.org/2000/svg" viewBox="0 0 24 24" xmlns:xlink="http://www.w3.org/1999/xlink">
  

        <defs>
            <symbol id="asset" viewBox="0 0 24 24">
            <path fill="currentColor" d="M3.4 18.4c0-.8.5-1.6 1.2-1.9.3-.1.6-.2.9-.2 1.2 0 2.1.9 2.1 2.1 0 1.2-.9 2.1-2.1 2.1-1.2 0-2.1-.9-2.1-2.1m8-6.3c0-.4.4-.8.8-.8s.8.4.8.8-.4.8-.8.8-.8-.4-.8-.8M4.6 7.7c-.7-.4-1.2-1.1-1.2-1.9 0-1.2.9-2.1 2.1-2.1 1.2 0 2.1.9 2.1 2.1 0 1.2-.9 2.1-2.1 2.1-.3 0-.6-.1-.9-.2M8.3 16l4.1-2.5 7 3.7c1.2.7 2.4-.3 2.6-.4.2-.1.2-.3 0-.5L14.9 12 22 7.8c.2-.1.2-.3 0-.5-.2-.1-1.4-1.1-2.6-.4l-7 3.7-4.1-2.4c.6-.6.9-1.5.9-2.4a3.7 3.7 0 1 0-5.3 3.3l5.7 3.1-5.7 3.1a3.8 3.8 0 0 0-2.1 3.3 3.7 3.7 0 1 0 7.4 0c0-1.1-.3-1.9-.9-2.6z"/></symbol>
        </defs>
        <g>
            <use xlink:href="#asset"/>
        </g>
    </svg>