<svg xmlns="http://www.w3.org/2000/svg" viewBox="0 0 24 24" xmlns:xlink="http://www.w3.org/1999/xlink">
  

        <defs>
            <symbol id="asset" viewBox="0 0 24 24">
            <path fill="currentColor" d="M15.7 10.8c0-.3-.2-.5-.5-.5-3 0-4.9 1.2-6.8 3.4-.1.1-.2.2-.2.4 0 .3.2.5.5.5.2 0 .3-.1.4-.2.4-.4.8-.8 1.2-1.1 1.5-1.4 2.8-1.9 4.9-1.9.3 0 .5-.3.5-.6zM20 9.2c0 .5-.1 1.1-.2 1.6-.5 2.6-2.2 4.3-4.5 5.4a7.79 7.79 0 0 1-6.1.5c-.4-.1-1.2-.7-1.5-.7-.4 0-.9 1.7-1.6 1.7-.5 0-.7-.3-.9-.6-.1-.1-.2-.2-.2-.3 0-.9 1.7-1.5 1.7-2 0-.1-.2-.5-.3-.7-.1-.3-.1-.6-.1-.9 0-2.7 2.1-4.6 4.5-5.3 1.7-.6 5.4.1 6.5-1 .5-.5.7-.9 1.4-.9 1 0 1.3 2.5 1.3 3.2z"/></symbol>
        </defs>
        <g>
            <use xlink:href="#asset"/>
        </g>
    </svg>