<svg xmlns="http://www.w3.org/2000/svg" viewBox="0 0 34 34"
     xmlns:xlink="http://www.w3.org/1999/xlink">
    <defs>
        <symbol id="asset" viewBox="0 0 34 34" fill="none" stroke="currentColor">
            <path
                d="M18.3 5.4c.8-.3 1.5-.4 2.2-.4h6.1c.8 0 1.5.3 2.1.9.6.5.9 1.3.9 2.1v6.2c0 .7-.2 1.4-.5 2.1-.3.8-.7 1.4-1.2 1.8L17.3 28.7c-.5.5-1.2.8-2.1.8-.8 0-1.5-.3-2-.8l-7.3-7.3c-.6-.6-.9-1.2-.9-2.1 0-.8.2-1.5.8-2.1L16.5 6.6c.4-.4 1.1-.8 1.8-1.2z"/>
            <circle cx="23.8" cy="10.8" r="2"/>
        </symbol>
    </defs>
    <g>
        <use xlink:href="#asset"/>
    </g>
</svg>
