<svg xmlns="http://www.w3.org/2000/svg" viewBox="0 0 24 24" xmlns:xlink="http://www.w3.org/1999/xlink">
  

        <defs>
            <symbol id="asset" viewBox="0 0 24 24">
            <path fill="currentColor" d="M21 9c0-.7-.5-1.2-1.2-1.2h-1.5c-.4-1-.9-1.9-1.5-2.7-1.5-.8-3.1-1.1-4.8-1-1.7-.1-3.3.3-4.8 1-.6.8-1 1.7-1.4 2.7H4.2C3.5 7.8 3 8.3 3 9s.5 1.2 1.2 1.2h.5c-.2.4-.3.7-.3 1.1-.1 1.1-.2 4.2-.3 5.5 0 1.3.3 2.4 1.5 2.4.4 0 .8-.1 1.1-.4.3-.3.4-.8.4-1.2v-.8h9.8v.8c0 .4.1.8.4 1.1.3.3.7.5 1.1.4 1.3 0 1.6-1 1.5-2.4s-.1-4.4-.3-5.5c-.1-.4-.2-.8-.3-1.1h.5c.7.1 1.2-.4 1.2-1.1zM8.2 6.2c1.2-.5 2.5-.7 3.8-.8 1.3 0 2.6.3 3.8.8.4.3 1.5 3.1 1.5 3.1H6.7s1.1-2.8 1.5-3.1zm-1.4 7.9c-.8 0-1.4-.6-1.4-1.4s.6-1.4 1.4-1.4 1.4.6 1.4 1.4-.6 1.4-1.4 1.4zm10.4 0c-.8 0-1.4-.6-1.4-1.4s.6-1.4 1.4-1.4 1.4.6 1.4 1.4-.7 1.4-1.4 1.4z"/></symbol>
        </defs>
        <g>
            <use xlink:href="#asset"/>
        </g>
    </svg>