<svg xmlns="http://www.w3.org/2000/svg" viewBox="0 0 24 24" xmlns:xlink="http://www.w3.org/1999/xlink">
  

        <defs>
            <symbol id="asset" viewBox="0 0 24 24">
            <path fill="currentColor" d="M20.2 15.3V13c0-1.6.1-2.5-.5-3-.5-.5-1.3-1.2-1.7-1.6-.4-.5-1-.8-1.6-.7H15V5.9c0-.5-.5-.9-1-.9H3.9c-.5 0-.9.4-.9.9v9.6c0 .5.4.9.9.9h.3c0 1.5 1.2 2.7 2.7 2.7s2.7-1.2 2.7-2.7h4c0 1.5 1.2 2.7 2.7 2.7S19 18 19 16.5h1.3c.4 0 .7-.2.8-.6-.2-.4-.5-.7-.9-.6zM7 17.9c-.8 0-1.4-.6-1.4-1.4h2.7c0 .8-.6 1.4-1.3 1.4zm9.3 0c-.4 0-.7-.1-1-.4-.3-.3-.4-.6-.4-1h2.8c0 .4-.1.7-.4 1-.3.2-.6.4-1 .4zm2.4-6.5H15V9.1h1.1c.2 0 .3 0 .4.1l2 1.7c.2.2.2.4.2.5z"/></symbol>
        </defs>
        <g>
            <use xlink:href="#asset"/>
        </g>
    </svg>