<svg xmlns="http://www.w3.org/2000/svg" viewBox="0 0 24 24" xmlns:xlink="http://www.w3.org/1999/xlink">
  

        <defs>
            <symbol id="asset" viewBox="0 0 24 24">
            <path fill="currentColor" d="M18.6 3.5H5.4a2 2 0 0 0-2 2v13.1c0 1.1.9 2 2 2h13.1a2 2 0 0 0 2-2V5.4c0-1.1-.8-1.9-1.9-1.9zM12 8.7c1.8 0 3.3 1.5 3.3 3.3 0 1.8-1.5 3.3-3.3 3.3S8.7 13.8 8.7 12c0-1.8 1.5-3.3 3.3-3.3zm6.6 9.2c0 .4-.3.7-.7.7H6.1c-.4 0-.7-.3-.7-.7v-7.2h1.5c-.1.4-.2.9-.2 1.3 0 2.9 2.4 5.3 5.3 5.3s5.3-2.4 5.3-5.3c0-.5-.1-.9-.2-1.3h1.5v7.2zm0-9.8c0 .4-.3.7-.7.7h-2c-.4 0-.7-.3-.7-.7v-2c0-.4.3-.7.7-.7h2c.4 0 .7.3.7.7v2z"/></symbol>
        </defs>
        <g>
            <use xlink:href="#asset"/>
        </g>
    </svg>