<svg xmlns="http://www.w3.org/2000/svg" viewBox="0 0 24 24" xmlns:xlink="http://www.w3.org/1999/xlink">
  

        <defs>
            <symbol id="asset" viewBox="0 0 24 24">
            <path fill="currentColor" d="M4.6 7.8h-4c-.3 0-.6-.3-.6-.6s.3-.6.6-.6h4c.3 0 .6.3.6.6s-.3.6-.6.6zM3.1 9.7H.6c-.3 0-.6-.3-.6-.6s.3-.6.6-.6h2.5c.3 0 .6.3.6.6s-.2.6-.6.6zm-1.4 1.9h-1c-.3 0-.6-.3-.6-.6s.3-.6.6-.6h1c.3 0 .6.3.6.6s-.3.6-.6.6zm21.2-.6l-1.5-.4c-.7-.1-1.3-.5-1.8-1L17 7.1c-.7-.8-1.8-1.2-2.8-1.1h-3.8c-1.4.1-2.7.5-3.8 1.4-.9.8-2.1 1.9-2.8 2.6s-.9.9-1 1.6c-.1.6-.2 1.2-.4 2.6-.2 1.4 1.4 1.3 3.1 1.3h.1c0 .1.1.3.1.4.3.6.8 1 1.4 1.2.3.1.5.1.8.1.4 0 .8-.1 1.1-.3.6-.3 1.1-.9 1.3-1.5h5.6c0 .1.1.3.1.4.3.6.7 1 1.3 1.2.3.1.5.1.8.1.4 0 .8-.1 1.1-.3.6-.3 1.1-.9 1.3-1.5H22c1.1 0 1.8-1.4 1.9-2.6.3-.7-.2-1.5-1-1.7zM9 15c-.1.3-.4.6-.7.8-.2.2-.5.2-.8.1a.9.9 0 0 1-.6-.6c-.3-.7 0-1.6.6-1.9.2-.1.3-.1.5-.1.1 0 .2 0 .3.1.3.1.5.3.7.6.2.3.2.7 0 1zm2.5-5h-6c1.6-1.5 2.7-2.8 4.4-2.8h2.5l-.9 2.8zm2-2.9c.9-.1 1.7.1 2.5.5.6.6 2.5 2.4 2.5 2.4h-5.8l.8-2.9zm5.8 7.9c-.1.3-.4.6-.7.8-.3.2-.6.2-.9.1a.9.9 0 0 1-.6-.6c-.3-.7 0-1.5.6-1.9.2-.1.3-.1.5-.1.1 0 .2 0 .4.1.3.1.5.3.6.6.2.3.2.6.1 1z"/></symbol>
        </defs>
        <g>
            <use xlink:href="#asset"/>
        </g>
    </svg>