<svg xmlns="http://www.w3.org/2000/svg" viewBox="0 0 24 24" xmlns:xlink="http://www.w3.org/1999/xlink">
  

        <defs>
            <symbol id="asset" viewBox="0 0 24 24">
            <path fill="currentColor" d="M19.6 6.5c.7-.5 1.4-1.3 1.6-2.2-.7.5-1.6.8-2.4 1C18.1 4.5 17.1 4 16 4a3.9 3.9 0 0 0-3.8 4c0 .3 0 .6.1.9-3.3-.1-6.1-1.7-8-4.2a4.36 4.36 0 0 0 1.2 5.5c-.6 0-1.2-.2-1.7-.5v.1a4 4 0 0 0 3.1 4c-.3.1-.7.1-1 .1-.2 0-.5 0-.7-.1.5 1.6 1.9 2.8 3.6 2.8A7.4 7.4 0 0 1 4 18.3c-.3 0-.6 0-.9-.1C4.7 19.4 6.7 20 8.9 20c7.1 0 11-6.2 11-11.5V8c.8-.6 1.4-1.3 1.9-2.1-.7.3-1.5.5-2.2.6z"/></symbol>
        </defs>
        <g>
            <use xlink:href="#asset"/>
        </g>
    </svg>