<svg xmlns="http://www.w3.org/2000/svg" viewBox="0 0 24 24" xmlns:xlink="http://www.w3.org/1999/xlink">
  

        <defs>
            <symbol id="asset" viewBox="0 0 24 24">
            <path fill="currentColor" d="M12 3.4A8.6 8.6 0 0 0 3.4 12c0 3.5 2.1 6.5 5.1 7.9 0-.6 0-1.3.2-2s1.1-4.7 1.1-4.7-.3-.5-.3-1.4c0-1.3.7-2.2 1.7-2.2.8 0 1.2.6 1.2 1.3 0 .8-.5 2-.8 3.1-.2.9.5 1.7 1.4 1.7 1.6 0 2.7-2.1 2.7-4.6 0-1.9-1.3-3.3-3.6-3.3-2.6 0-4.2 1.9-4.2 4.1 0 .7.2 1.3.6 1.7.2.2.2.3.1.5 0 .2-.1.5-.2.7-.1.2-.3.2-.5.2-1.2-.5-1.8-1.8-1.8-3.3 0-2.4 2.1-5.4 6.1-5.4 3.3 0 5.4 2.4 5.4 4.9 0 3.4-1.9 5.9-4.6 5.9-.9 0-1.8-.5-2.1-1.1l-.6 2.4c-.2.7-.5 1.3-.9 1.8.8.2 1.6.4 2.4.4 4.8 0 8.6-3.9 8.6-8.6S16.8 3.4 12 3.4z"/></symbol>
        </defs>
        <g>
            <use xlink:href="#asset"/>
        </g>
    </svg>