<svg xmlns="http://www.w3.org/2000/svg" xmlns:xlink="http://www.w3.org/1999/xlink" viewBox="0 0 32 32">
  <defs>
    <symbol id="asset" viewBox="0 0 31.64 32" fill="currentColor">
      <path d="M27.38 0H4.27A4.28 4.28 0 000 4.27v23.46A4.28 4.28 0 004.27 32h23.11a4.27 4.27 0 004.26-4.27V4.27A4.27 4.27 0 0027.38 0zm2.13 4.27V6.4h-8.18V2.13h6.05a2.15 2.15 0 012.13 2.14zM11.73 6.4V2.13h8.18V6.4zm8.18 1.42v22.05h-8.18v-22zM4.27 2.13h6V6.4H2.13V4.27a2.16 2.16 0 012.14-2.14zm-2.14 25.6V7.82h8.18v22.05h-6a2.16 2.16 0 01-2.14-2.14zm25.25 2.14h-6.05v-22h8.18v19.86a2.15 2.15 0 01-2.13 2.14zM3.56 12.44a.71.71 0 01.71-.71h3.91a.72.72 0 010 1.43H4.27a.71.71 0 01-.71-.72zm5.33 4.27a.71.71 0 01-.71.71H4.27a.71.71 0 010-1.42h3.91a.71.71 0 01.71.71zm0 4.27a.71.71 0 01-.71.71H4.27a.71.71 0 010-1.42h3.91a.71.71 0 01.71.73zm0 4.27a.72.72 0 01-.71.71H4.27a.72.72 0 010-1.43h3.91a.72.72 0 01.71.71zm4.27-12.81a.71.71 0 01.71-.71h3.91a.72.72 0 010 1.43h-3.91a.71.71 0 01-.71-.72zm0 4.27a.71.71 0 01.71-.71h3.91a.71.71 0 110 1.42h-3.91a.71.71 0 01-.71-.71zm0 4.27a.71.71 0 01.71-.71h3.91a.71.71 0 110 1.42h-3.91a.71.71 0 01-.71-.71zm5.33 4.27a.71.71 0 01-.71.71h-3.91a.72.72 0 010-1.43h3.91a.72.72 0 01.71.71zm9.6-12.8a.71.71 0 01-.71.71h-3.91a.72.72 0 010-1.43h3.91a.72.72 0 01.71.71zm0 4.26a.71.71 0 01-.71.71h-3.91a.71.71 0 010-1.42h3.91a.71.71 0 01.71.71zm0 4.27a.71.71 0 01-.71.71h-3.91a.71.71 0 010-1.42h3.91a.71.71 0 01.71.71zm0 4.27a.71.71 0 01-.71.71h-3.91a.71.71 0 010-1.42h3.91a.7.7 0 01.71.7z"/>
    </symbol>
  </defs>
  <use xlink:href="#asset" />
</svg>
