<svg xmlns="http://www.w3.org/2000/svg" xmlns:xlink="http://www.w3.org/1999/xlink" viewBox="0 0 32 32">
    <defs>
        <symbol id="asset" viewBox="0 0 32 27.9" fill="currentColor">
            <path class="cls-1" d="M31.93,8.15,29.27.85A1.27,1.27,0,0,0,28.06,0H4A1.31,1.31,0,0,0,2.74.84L.08,8.14A1.28,1.28,0,0,0,.83,9.78a1.21,1.21,0,0,0,.46.08H2.41v17.4A.63.63,0,0,0,3,27.9H29a.66.66,0,0,0,.64-.64V9.86h1.11A1.3,1.3,0,0,0,32,8.54,1,1,0,0,0,31.93,8.15ZM17.49,19.46H4.66V9.9H17.49Zm2.25,6.16V9.9h7.61V25.62Zm-11.21-10h1.4V17a.19.19,0,0,0,.19.2h1.33a.2.2,0,0,0,.21-.19h0v-1.4h1.4a.2.2,0,0,0,.2-.2h0V14.05a.2.2,0,0,0-.19-.21H11.66v-1.4a.2.2,0,0,0-.2-.2H10.13a.2.2,0,0,0-.21.19h0v1.4H8.52a.2.2,0,0,0-.2.2h0v1.32A.22.22,0,0,0,8.53,15.58Z"/>
        </symbol>
    </defs>
    <use xlink:href="#asset"/>
</svg>
