<svg xmlns="http://www.w3.org/2000/svg" xmlns:xlink="http://www.w3.org/1999/xlink" viewBox="0 0 32 32">
    <defs>
        <symbol id="asset" viewBox="0 0 28.83 32" fill="currentColor">
            <path d="M14.41,32a4.14,4.14,0,0,1-4.2-4.08h8.4A4.14,4.14,0,0,1,14.41,32Zm13.81-5.25H.6a.6.6,0,0,1-.6-.58V24.41a2.37,2.37,0,0,1,2.41-2.33,1.18,1.18,0,0,0,1.2-1.17h0v-7a10.56,10.56,0,0,1,8.1-10.18V2.53a2.71,2.71,0,0,1,5.4,0v1.2a10.58,10.58,0,0,1,8.11,10.18v7a1.19,1.19,0,0,0,1.2,1.17h0a2.37,2.37,0,0,1,2.41,2.33v1.76a.6.6,0,0,1-.6.58Z"/>
        </symbol>
    </defs>
    <use xlink:href="#asset"/>
</svg>
