<svg xmlns="http://www.w3.org/2000/svg" xmlns:xlink="http://www.w3.org/1999/xlink" viewBox="0 0 32 32">
  <defs>
    <symbol id="asset" viewBox="0 0 31.22 32" fill="currentColor">
      <path d="M17.17 5.34v15a1.56 1.56 0 01-3.12 0v-15L12.29 7.1a1.56 1.56 0 01-2.21-.1 1.55 1.55 0 010-2.15l4.43-4.4A1.54 1.54 0 0115.6 0a1.54 1.54 0 011.1.45l4.43 4.43a1.56 1.56 0 01-2.2 2.21zm-14 23.54h25V17.94a1.56 1.56 0 113.12 0v12.5a1.54 1.54 0 01-.45 1.1 1.57 1.57 0 01-1.1.46H1.56A1.55 1.55 0 010 30.45V18a1.56 1.56 0 013.12 0z"/>
    </symbol>
  </defs>
  <use xlink:href="#asset"/>
</svg>
