<svg xmlns="http://www.w3.org/2000/svg" xmlns:xlink="http://www.w3.org/1999/xlink" viewBox="0 0 32 32">
    <defs>
        <symbol id="asset" viewBox="0 0 32 32" fill="currentColor">
            <path d="M16 26a2.59 2.59 0 01-2.63-2.55h5.25A2.58 2.58 0 0116 26zm8.62-3.28H7.37a.36.36 0 01-.37-.37v-1.1a1.47 1.47 0 011.5-1.45.74.74 0 00.75-.73v-4.38a6.58 6.58 0 015.06-6.35v-.76a1.69 1.69 0 013.38 0v.76a6.59 6.59 0 015.06 6.35v4.38a.74.74 0 00.75.73 1.47 1.47 0 011.5 1.45v1.1a.36.36 0 01-.37.36zM16 0a16 16 0 1016 16A16 16 0 0016 0zm0 30a14 14 0 1114-14 14 14 0 01-14 14z"/>
        </symbol>
    </defs>
    <use xlink:href="#asset" />
</svg>
