<svg xmlns="http://www.w3.org/2000/svg" xmlns:xlink="http://www.w3.org/1999/xlink" viewBox="0 0 32 32">
  <defs>
    <symbol id="asset" viewBox="0 0 32 14" fill="currentColor">
      <path d="M12 14l-.18-.12c.33-1.57 1.83-3.33 4.22-4.94-.17-.22-.34-.42-.52-.63l-.08-.08a14 14 0 00-2.8 2.42l-.16-.14A7.24 7.24 0 0115 7.77c-.13-.13-.33-.33-.55-.52a13.32 13.32 0 00-1.38 1.15l-.15-.16a5.48 5.48 0 011.13-1.31 22.33 22.33 0 00-6.46-3.78A37.71 37.71 0 000 1.09 40.29 40.29 0 018.13 3a22.13 22.13 0 015.63 2.86 4.64 4.64 0 01.69-.64A25.6 25.6 0 003.25.43a31.77 31.77 0 016.92 1.81 17.08 17.08 0 014.66 2.65 7.83 7.83 0 01.79-.47 14.09 14.09 0 00-3.79-2.5A27.74 27.74 0 006.32 0a29.78 29.78 0 016 1.74A9.4 9.4 0 0116 4.24a25.25 25.25 0 016.42-1.91h.05a25.53 25.53 0 00-6.23 2.2 3 3 0 01.24.38l-.13.13c-.11-.12-.21-.25-.33-.37l-.77.45a6 6 0 01.56.57 28.3 28.3 0 019.56-3 29.81 29.81 0 00-9.27 3.43 5.82 5.82 0 01.44.66 28.13 28.13 0 015.29-2.2 32.86 32.86 0 016.28-1.28h.06A30.18 30.18 0 0021.83 5 32.47 32.47 0 0016 7.85c.19.24.37.49.54.74a29.07 29.07 0 016.86-3.11A34 34 0 0132 4a35.31 35.31 0 00-15.15 5.2 5.34 5.34 0 01.52 1.5l-.17.11a12 12 0 00-.8-1.33A14.65 14.65 0 0012 14zm3.78-7.66l-.21.14-.57.35c.19.16.36.34.53.51l.19-.12.53-.31c-.16-.19-.35-.39-.52-.57zm-1-.91A6.28 6.28 0 0014 6c.2.16.38.3.56.47.24-.19.5-.36.75-.52l-.59-.53z"/>
    </symbol>
  </defs>
  <use xlink:href="#asset"/>
</svg>
