<svg xmlns="http://www.w3.org/2000/svg" xmlns:xlink="http://www.w3.org/1999/xlink" viewBox="0 0 32 32">
  <defs>
    <symbol id="asset" viewBox="0 0 32 32" fill="currentColor">
      <g>
        <path d="M30.86 8h-5.72V1.14A1.14 1.14 0 0024 0H8a1.14 1.14 0 00-1.14 1.14V8H1.14A1.14 1.14 0 000 9.14V24a1.14 1.14 0 001.14 1.14h5.72v5.72A1.14 1.14 0 008 32h16a1.14 1.14 0 001.14-1.14v-5.72h5.72A1.14 1.14 0 0032 24V9.14A1.14 1.14 0 0030.86 8zM9.14 2.29h13.72V8H9.14zm13.72 27.42H9.14V19.43h13.72zm6.85-6.85h-4.57v-3.43h1.15a1.15 1.15 0 000-2.29H5.71a1.15 1.15 0 000 2.29h1.15v3.43H2.29V10.29h27.42z"/>
        <path d="M26.29 14.86h1.14a1.15 1.15 0 000-2.29h-1.14a1.15 1.15 0 100 2.29z"/>
        <path d="M19.43 21.71h-6.86a1.15 1.15 0 000 2.29h6.86a1.15 1.15 0 000-2.29z"/>
        <path d="M19.43 25.14h-6.86a1.15 1.15 0 000 2.29h6.86a1.15 1.15 0 000-2.29z"/>
      </g>
    </symbol>
  </defs>
  <use xlink:href="#asset"/>
</svg>
