<svg xmlns="http://www.w3.org/2000/svg" xmlns:xlink="http://www.w3.org/1999/xlink" viewBox="0 0 32 32">
  <defs>
    <symbol id="asset" viewBox="0 0 32 30" fill="currentColor">
      <path d="M1.5 30a1.48 1.48 0 01-1.27-.67A1.32 1.32 0 01.16 28L14.66.78A1.55 1.55 0 0116.77.2a1.59 1.59 0 01.57.58L31.84 28a1.3 1.3 0 01-.07 1.37 1.48 1.48 0 01-1.27.63zm2.43-2.81h24.14L16 4.55zm10.57-3.28a1.5 1.5 0 111.59 1.4H16a1.45 1.45 0 01-1.5-1.4zm0-3.29v-9.37h3v9.37z"/>
    </symbol>
  </defs>
  <use xlink:href="#asset" />
</svg>
