<svg xmlns="http://www.w3.org/2000/svg" xmlns:xlink="http://www.w3.org/1999/xlink" viewBox="0 0 32 32">
  <defs>
    <symbol id="asset" data-name="icon_feedback-outline" viewBox="0 0 32 28.44" fill="currentColor">
      <path id="icon_feedback-outline-3" data-name="icon_feedback-outline" d="M29.87 0H9.24a2.14 2.14 0 00-2.13 2.13v8.54h-5A2.14 2.14 0 000 12.8v10.67a2.14 2.14 0 002.13 2.13h1.43l1.92 2.56a.71.71 0 001.13 0l1.92-2.56h9.25a2.14 2.14 0 002.13-2.13v-5h3.56l1.92 2.56a.71.71 0 001.13 0l1.92-2.56h1.43A2.14 2.14 0 0032 16.36V2.13A2.14 2.14 0 0029.87 0zM18.49 23.47a.71.71 0 01-.71.71h-9.6a.72.72 0 00-.57.28L6 26.56l-1.56-2.1a.73.73 0 00-.57-.28H2.13a.71.71 0 01-.71-.71V12.8a.71.71 0 01.71-.71h5v4.27a2.14 2.14 0 002.13 2.13h9.25zm12.09-7.11a.71.71 0 01-.71.71h-1.78a.73.73 0 00-.57.28L26 19.45l-1.57-2.1a.72.72 0 00-.57-.28H9.24a.71.71 0 01-.71-.71V2.13a.71.71 0 01.71-.71h20.63a.71.71 0 01.71.71zm-5.69-9l-3.24-.47L20.2 4a.68.68 0 00-.64-.39.66.66 0 00-.64.39l-1.46 2.93-3.24.47a.64.64 0 00-.57.49.73.73 0 00.18.71l2.35 2.28-.57 3.24a.77.77 0 00.28.71.83.83 0 00.75.07l2.92-1.53 2.91 1.53a1.23 1.23 0 00.32.07.73.73 0 00.43-.14.77.77 0 00.28-.71l-.57-3.24 2.35-2.28a.73.73 0 00.18-.71.64.64 0 00-.57-.49zm-3.2 2.73a.7.7 0 00-.21.64l.35 2.17-1.95-1a.55.55 0 00-.32-.07 1.14 1.14 0 00-.32.07l-2 1 .36-2.17a.77.77 0 00-.22-.64L15.82 8.6 18 8.28a.66.66 0 00.53-.39l1-2 1 2a.72.72 0 00.53.39l2.21.32zM9.24 21.33a.71.71 0 01.22-.49.7.7 0 111 1 .64.64 0 01-.21.14.43.43 0 01-.25.02.7.7 0 01-.5-.21.72.72 0 01-.26-.46zm3.77.5a.69.69 0 010-1s.07-.08.11-.08.07 0 .11-.07a.78.78 0 01.14 0 .77.77 0 01.64.18.69.69 0 010 1s-.07.07-.11.07-.07 0-.1.07-.08 0-.15 0h-.14a.41.41 0 01-.28-.07c-.07.07-.15-.03-.23-.1zm-6.11-1A.71.71 0 016.4 22a.41.41 0 01-.28 0 .42.42 0 01-.22-.14.69.69 0 010-1 .68.68 0 011-.02z"/>
    </symbol>
  </defs>
  <use xlink:href="#asset" />
</svg>
