<!-- <svg xmlns="http://www.w3.org/2000/svg" xmlns:xlink="http://www.w3.org/1999/xlink" viewBox="0 0 32 32">
    <defs>
        <symbol id="asset" viewBox="0 0 32 32" fill="currentColor">
            <path d="M22.69 32c-.56-.09-1.12-.17-1.68-.29a21.93 21.93 0 01-5.87-2.4 31.4 31.4 0 01-7.74-6.06A31 31 0 011 13.2a13 13 0 01-1-4.29A5.22 5.22 0 011.43 5C2.29 4.08 3.11 3.17 4 2.37a3 3 0 014.35.06c1.45 1.36 2.85 2.79 4.2 4.24a2.89 2.89 0 010 3.92c-.72.82-1.52 1.56-2.27 2.34l-.27.23a22.06 22.06 0 008.71 8.69L20.56 20a4.57 4.57 0 011.63-1.22 2.72 2.72 0 013 .53c1.52 1.44 3 2.93 4.44 4.45a2.91 2.91 0 01.08 3.89c-.91 1.07-1.92 2.09-2.94 3.08a4.52 4.52 0 01-2.64 1.17l-.21.06zm.45-1.84a3.49 3.49 0 002.71-1.06c.68-.72 1.38-1.42 2.08-2.13a3.47 3.47 0 00.25-.29 1.25 1.25 0 000-1.76c-.56-.6-1.15-1.17-1.73-1.75-.75-.76-1.49-1.51-2.26-2.25a1.22 1.22 0 00-1.72-.11l-.06.06c-.11.09-.21.2-.32.3-.72.72-1.44 1.45-2.17 2.16a1.38 1.38 0 01-1.73.29c-.44-.22-.88-.44-1.31-.7a22.5 22.5 0 01-5.06-4.22 18.39 18.39 0 01-3.35-4.75 1.55 1.55 0 01.41-2.15c.75-.72 1.54-1.49 2.28-2.27a1.17 1.17 0 00.09-1.65l-.06-.06a4 4 0 00-.28-.3L7.3 3.9a1.37 1.37 0 00-2.22 0c-.76.76-1.48 1.43-2.18 2.19a4.12 4.12 0 00-.81 1.22 5.2 5.2 0 000 3 18.1 18.1 0 001.59 4.38 29.78 29.78 0 004.63 6.72A29.08 29.08 0 0020 29.47a10.58 10.58 0 003.19.68zM17.55 1a1 1 0 011-1A13.46 13.46 0 0132 13.45a1 1 0 11-2 0A11.47 11.47 0 0018.55 2a1 1 0 01-1-1zm0 5a1 1 0 011-1A8.47 8.47 0 0127 13.45a1 1 0 01-2 0A6.46 6.46 0 0018.55 7a1 1 0 01-1-1zm0 5a1 1 0 011-1A3.46 3.46 0 0122 13.45a1 1 0 11-2 0A1.47 1.47 0 0018.55 12a1 1 0 01-1-1z"/>
        </symbol>
    </defs>
    <use xlink:href="#asset" />
</svg> -->
<svg xmlns="http://www.w3.org/2000/svg" xmlns:xlink="http://www.w3.org/1999/xlink" viewBox="0 0 32 32">
    <defs>
    <symbol id="asset" viewBox="0 0 32 32" fill="currentColor">
        <path  d="M22.69,32c-.56-.09-1.12-.17-1.68-.29a21.93,21.93,0,0,1-5.87-2.4A31.4,31.4,0,0,1,7.4,23.25,31,31,0,0,1,1,13.2,13,13,0,0,1,0,8.91,5.22,5.22,0,0,1,1.43,5C2.29,4.08,3.11,3.17,4,2.37a3,3,0,0,1,4.35.06c1.45,1.36,2.85,2.79,4.2,4.24a2.89,2.89,0,0,1,0,3.92c-.72.82-1.52,1.56-2.27,2.34l-.27.23a22.06,22.06,0,0,0,8.71,8.69L20.56,20a4.57,4.57,0,0,1,1.63-1.22,2.72,2.72,0,0,1,3,.53c1.52,1.44,3,2.93,4.44,4.45a2.91,2.91,0,0,1,.08,3.89c-.91,1.07-1.92,2.09-2.94,3.08a4.52,4.52,0,0,1-2.64,1.17l-.21.06Zm.45-1.84a3.49,3.49,0,0,0,2.71-1.06c.68-.72,1.38-1.42,2.08-2.13a3.47,3.47,0,0,0,.25-.29,1.25,1.25,0,0,0,0-1.76l0,0c-.56-.6-1.15-1.17-1.73-1.75-.75-.76-1.49-1.51-2.26-2.25a1.22,1.22,0,0,0-1.72-.11l-.06.06c-.11.09-.21.2-.32.3-.72.72-1.44,1.45-2.17,2.16a1.38,1.38,0,0,1-1.73.29c-.44-.22-.88-.44-1.31-.7a22.5,22.5,0,0,1-5.06-4.22,18.39,18.39,0,0,1-3.35-4.75,1.55,1.55,0,0,1,.41-2.15c.75-.72,1.54-1.49,2.28-2.27a1.17,1.17,0,0,0,.09-1.65l-.06-.06a4,4,0,0,0-.28-.3L7.3,3.9a1.37,1.37,0,0,0-2.22,0C4.32,4.66,3.6,5.33,2.9,6.09a4.12,4.12,0,0,0-.81,1.22,5.2,5.2,0,0,0,0,3,18.1,18.1,0,0,0,1.59,4.38,29.78,29.78,0,0,0,4.63,6.72A29.08,29.08,0,0,0,20,29.47a10.58,10.58,0,0,0,3.19.68ZM17.55,1a1,1,0,0,1,1-1A13.46,13.46,0,0,1,32,13.45a1,1,0,1,1-2,0A11.47,11.47,0,0,0,18.55,2,1,1,0,0,1,17.55,1Zm0,5a1,1,0,0,1,1-1A8.47,8.47,0,0,1,27,13.45a1,1,0,0,1-2,0A6.46,6.46,0,0,0,18.55,7,1,1,0,0,1,17.55,6Zm0,5a1,1,0,0,1,1-1A3.46,3.46,0,0,1,22,13.45a1,1,0,1,1-2,0A1.47,1.47,0,0,0,18.55,12,1,1,0,0,1,17.55,11Z"/>
        </symbol>
    </defs>
    <use xlink:href="#asset" />
    </svg>