<svg xmlns="http://www.w3.org/2000/svg" xmlns:xlink="http://www.w3.org/1999/xlink" viewBox="0 0 32 32">
    <defs>
        <symbol id="asset" viewBox="0 0 26.98 32" fill="currentColor">
            <path d="M19.71 27l-5.43-3.3A1 1 0 0013 24a1.07 1.07 0 00-.14.49v1.82a10.3 10.3 0 01-7.3-16.88.57.57 0 000-.78L4 7.24a.58.58 0 00-.81 0 13.49 13.49 0 009.67 22.2v1.58a1 1 0 001.45.81l5.39-3.26a1 1 0 00.3-1.27 1 1 0 00-.29-.3z"/>
            <path d="M22.23 5.71a13.38 13.38 0 00-8.09-3.18V.94a1 1 0 00-1-.94 1 1 0 00-.47.13L7.3 3.4A.94.94 0 007 4.7a.86.86 0 00.3.3l5.4 3.28A1 1 0 0014 8a.92.92 0 00.14-.48V5.66a10.3 10.3 0 017.28 16.88.56.56 0 000 .77L23 24.73a.57.57 0 00.8 0 13.46 13.46 0 00-1.57-19.02z"/>
        </symbol>
    </defs>
    <use xlink:href="#asset" />
</svg>
