<svg xmlns="http://www.w3.org/2000/svg" xmlns:xlink="http://www.w3.org/1999/xlink" viewBox="0 0 32 32">
  <defs>
    <symbol id="asset" viewBox="0 0 32 31.37" fill="currentColor">
      <path d="M26.78 3h-3.33V1.38a1.38 1.38 0 10-2.76 0V3h-9.41V1.38A1.39 1.39 0 009.91 0a1.37 1.37 0 00-1.37 1.38V3H5.22A5.23 5.23 0 000 8.26v17.89a5.24 5.24 0 005.22 5.22h21.56A5.23 5.23 0 0032 26.15V8.26A5.25 5.25 0 0026.78 3zM5.22 5.77h3.33v1.65a1.39 1.39 0 001.38 1.37 1.37 1.37 0 001.37-1.37V5.77h9.45v1.65a1.39 1.39 0 002.77 0V5.77h3.26a2.5 2.5 0 012.5 2.48v3.2H2.72V8.26a2.49 2.49 0 012.49-2.49zm21.56 22.87H5.22a2.49 2.49 0 01-2.5-2.47V14.23h26.55v11.92a2.48 2.48 0 01-2.48 2.49z"/>
    </symbol>
  </defs>
  <use xlink:href="#asset" />
</svg>
